<svg width="225" height="52" viewBox="0 0 225 52" fill="none" xmlns="http://www.w3.org/2000/svg">
<path d="M54.095 32.2C53.295 30.7067 52.7883 29.0533 52.575 27.24C52.3617 25.3733 52.255 22.8133 52.255 19.56C52.255 16.4667 51.8283 13.7733 50.975 11.48C50.1217 9.18667 48.3617 8.04 45.695 8.04C44.6817 8.04 43.6683 8.36 42.655 9C41.695 9.58667 40.975 10.3333 40.495 11.24C39.7483 12.68 39.2417 14.2533 38.975 15.96C38.7083 17.6133 38.575 19.5333 38.575 21.72C38.575 23.1067 38.655 24.52 38.815 25.96C38.815 26.3867 38.8417 27.08 38.895 28.04C39.0017 28.9467 39.055 29.7733 39.055 30.52C39.055 33.72 37.935 35.32 35.695 35.32C32.7617 35.32 31.215 33.7733 31.055 30.68C31.055 28.4933 31.0817 27.32 31.135 27.16V23.72C31.135 21.8 31.055 19.9333 30.895 18.12C30.735 16.3067 30.5483 14.9467 30.335 14.04C29.855 12.28 29.215 10.92 28.415 9.96C27.6683 9 26.4683 8.52 24.815 8.52C22.4683 8.52 20.575 9.53333 19.135 11.56C18.1217 13.16 17.455 15.1067 17.135 17.4C16.815 20.3333 16.575 22.6533 16.415 24.36C16.3083 26.0133 16.255 27.9333 16.255 30.12C16.255 31.6667 15.9883 32.92 15.455 33.88C14.975 34.84 14.0417 35.32 12.655 35.32C11.6417 35.32 10.575 35.0533 9.455 34.52C8.38833 33.9333 7.855 33.16 7.855 32.2C7.855 31.1867 7.96167 30.1733 8.175 29.16C8.655 26.12 8.895 20.68 8.895 12.84C8.895 11.56 8.575 10.3333 7.935 9.16C7.34833 7.93333 6.62833 7.32 5.775 7.32C5.56167 7.32 5.16167 7.42667 4.575 7.64C4.04167 7.85333 3.64167 7.96 3.375 7.96C2.68167 7.96 2.04167 7.64 1.455 7C0.921667 6.36 0.655 5.82667 0.655 5.4C0.655 4.06667 1.295 2.94667 2.575 2.04C3.90833 1.08 5.295 0.599999 6.735 0.599999C8.70833 0.599999 10.3883 1.21333 11.775 2.44C13.1617 3.66667 14.2283 5.37333 14.975 7.56C16.2017 5.42667 17.855 3.72 19.935 2.44C22.015 1.10667 24.335 0.439999 26.895 0.439999C28.495 0.439999 29.775 0.653332 30.735 1.08C31.7483 1.45333 32.575 2.01333 33.215 2.76C33.855 3.45333 34.6817 4.52 35.695 5.96C37.0283 4.25333 38.735 2.92 40.815 1.96C42.9483 0.999998 45.135 0.519998 47.375 0.519998C50.0417 0.519998 52.4417 1.61333 54.575 3.8C56.7083 5.93333 58.1483 8.41333 58.895 11.24C59.2683 12.68 59.455 15.4533 59.455 19.56L59.775 24.2C60.0417 26.9733 60.9483 28.6533 62.495 29.24C64.3083 29.7733 65.215 30.3333 65.215 30.92C65.215 32.2 64.895 33.1333 64.255 33.72C63.775 34.04 63.1083 34.3867 62.255 34.76C61.4017 35.1333 60.735 35.32 60.255 35.32C57.375 35.32 55.3217 34.28 54.095 32.2ZM102.17 9.32C102.597 10.0667 102.943 11.16 103.21 12.6C103.477 13.9867 103.61 15.24 103.61 16.36C103.61 18.44 103.157 21.4 102.25 25.24C98.57 31.96 93.13 35.32 85.93 35.32C83.2633 35.32 80.5433 34.44 77.77 32.68C74.9967 30.92 73.0767 28.8933 72.01 26.6C70.57 22.0133 69.85 19.1067 69.85 17.88C69.85 15.7467 70.3033 13.48 71.21 11.08C72.17 8.68 73.37 6.6 74.81 4.84C75.7167 3.61333 77.3433 2.57333 79.69 1.72C82.0367 0.813332 84.17 0.359998 86.09 0.359998C89.8233 0.359998 92.9967 1.08 95.61 2.52C98.2233 3.90666 100.41 6.17333 102.17 9.32ZM95.21 22.2C95.4767 21.5067 95.61 19.72 95.61 16.84C95.61 15.2933 95.3167 13.7733 94.73 12.28C94.1967 10.7867 93.3967 9.50667 92.33 8.44C92.2233 8.33333 91.93 8.17333 91.45 7.96C90.97 7.69333 90.3033 7.45333 89.45 7.24C88.65 6.97333 87.7167 6.84 86.65 6.84C83.6633 6.84 81.4767 8.04 80.09 10.44C78.7033 12.84 78.01 15.56 78.01 18.6C78.01 19.1333 78.1433 20.1467 78.41 21.64C78.73 23.1333 78.9967 24.0667 79.21 24.44C79.37 24.8133 79.77 25.3467 80.41 26.04C81.1033 26.68 81.93 27.2667 82.89 27.8C83.9033 28.28 84.9433 28.52 86.01 28.52C88.41 28.52 90.33 27.96 91.77 26.84C93.21 25.6667 94.3567 24.12 95.21 22.2ZM110.788 6.84C110.361 6.52 110.014 6.2 109.748 5.88C109.481 5.50666 109.348 4.86667 109.348 3.96C109.348 2.94667 109.694 2.17333 110.388 1.64C111.134 1.05333 111.988 0.759997 112.948 0.759997C114.814 0.759997 116.414 1.24 117.747 2.2C119.134 3.16 120.148 4.49333 120.788 6.2C121.961 4.01333 123.454 2.52 125.268 1.72C127.081 0.866666 129.588 0.439999 132.788 0.439999C134.068 0.439999 135.374 0.839999 136.708 1.64C138.094 2.38666 139.348 3.32 140.468 4.44C141.374 5.61333 142.148 7.08 142.788 8.84C143.428 10.5467 143.748 12.0933 143.748 13.48C143.748 14.28 143.694 15.5867 143.588 17.4C143.481 19.32 143.428 20.84 143.428 21.96C143.428 25.6933 144.148 27.9867 145.588 28.84C145.801 28.9467 146.201 29.08 146.788 29.24C147.374 29.4 147.801 29.56 148.068 29.72C148.388 29.88 148.548 30.12 148.548 30.44C148.601 31.72 148.121 32.7867 147.108 33.64C146.148 34.44 144.974 34.84 143.588 34.84C141.508 34.84 139.881 34.28 138.708 33.16C137.534 32.04 136.708 30.3333 136.228 28.04C135.961 27.1867 135.828 25.9333 135.828 24.28C135.828 23.3733 135.881 21.9067 135.988 19.88C136.148 18.28 136.228 16.5733 136.228 14.76C136.228 12.8933 135.694 11.2667 134.628 9.88C133.561 8.44 132.094 7.72 130.228 7.72C129.108 7.72 127.934 8.06667 126.708 8.76C125.481 9.4 124.628 10.2 124.148 11.16C123.348 12.8133 122.814 14.4933 122.548 16.2C121.908 19.5067 121.588 22.68 121.588 25.72C121.588 26.4667 121.641 27.9067 121.748 30.04C121.748 30.2 121.748 30.6 121.748 31.24C121.748 31.8267 121.668 32.3867 121.508 32.92C121.401 33.4533 121.188 33.9333 120.868 34.36C120.654 34.5733 120.254 34.7867 119.668 35C119.081 35.2133 118.574 35.32 118.148 35.32C117.401 35.32 116.468 35 115.348 34.36C114.228 33.72 113.561 33 113.348 32.2L113.268 31.08C113.268 30.6533 113.321 30.0133 113.428 29.16C114.068 25.4267 114.388 22.1733 114.388 19.4C114.388 18.1733 114.361 17.24 114.308 16.6L114.228 12.92C114.228 11.8 113.908 10.7333 113.268 9.72C112.628 8.65333 111.801 7.69333 110.788 6.84ZM153.284 16.68C153.284 13.4267 154.004 10.7333 155.444 8.6C156.884 6.41333 158.884 4.36 161.444 2.44C162.19 1.90667 163.444 1.45333 165.204 1.08C166.964 0.653332 168.51 0.439999 169.844 0.439999C171.444 0.439999 173.124 0.786665 174.884 1.48C176.697 2.12 178.164 2.86667 179.284 3.72C181.257 5.16 182.617 6.84 183.364 8.76C184.11 10.6267 184.484 12.8667 184.484 15.48C184.484 16.6 183.844 17.6933 182.564 18.76C181.337 19.7733 180.004 20.28 178.564 20.28L175.524 20.2C173.977 20.2 171.764 20.2533 168.884 20.36L167.204 20.44C166.03 20.5467 165.15 20.6 164.564 20.6C163.71 20.6 162.537 20.4933 161.044 20.28C161.257 22.7867 162.19 24.76 163.844 26.2C165.497 27.5867 167.284 28.28 169.204 28.28C172.564 28.28 174.91 27.6133 176.244 26.28C177.364 25.48 178.11 24.9733 178.484 24.76C178.857 24.5467 179.444 24.44 180.244 24.44C181.097 24.44 181.844 24.84 182.484 25.64C183.124 26.44 183.444 27.24 183.444 28.04C183.444 28.9467 182.884 29.88 181.764 30.84C180.697 31.7467 179.23 32.7067 177.364 33.72C176.35 34.1467 174.964 34.52 173.204 34.84C171.444 35.16 169.977 35.32 168.804 35.32C166.937 35.32 164.857 34.7867 162.564 33.72C160.27 32.6 158.564 31.3733 157.444 30.04C156.324 28.7067 155.337 26.8133 154.484 24.36C153.684 21.9067 153.284 19.3467 153.284 16.68ZM169.204 14.52C172.99 14.52 175.764 14.3867 177.524 14.12C177.417 12.5733 176.937 11.32 176.084 10.36C175.23 9.34666 174.057 8.49333 172.564 7.8C172.084 7.58667 171.657 7.42667 171.284 7.32C170.91 7.21333 170.484 7.16 170.004 7.16C167.55 7.16 165.47 7.82667 163.764 9.16C162.11 10.4933 161.124 12.2 160.804 14.28C163.47 14.44 166.27 14.52 169.204 14.52ZM201.093 51.32C199.119 51.32 197.439 50.9733 196.053 50.28C194.666 49.64 193.626 48.84 192.933 47.88C192.293 46.9733 191.973 46.1733 191.973 45.48C191.973 44.52 192.319 43.6667 193.013 42.92C193.706 42.2267 194.479 41.88 195.333 41.88C195.813 41.88 196.266 42.04 196.693 42.36C197.173 42.68 197.466 42.8667 197.573 42.92C197.839 43.1333 198.186 43.4533 198.613 43.88C199.039 44.36 199.466 44.6 199.893 44.6C201.119 44.6 202.106 43.8267 202.853 42.28C203.599 40.7333 204.319 38.2267 205.013 34.76C201.493 28.9467 198.159 23.0267 195.013 17C191.866 10.9733 190.293 6.89333 190.293 4.76C190.293 3.42666 190.773 2.44 191.733 1.8C192.693 1.16 193.786 0.839999 195.013 0.839999C195.919 0.839999 196.639 1.02667 197.173 1.4C197.706 1.72 198.133 2.33333 198.453 3.24C199.946 7.77333 201.466 11.8267 203.013 15.4C204.559 18.92 206.346 22.4667 208.372 26.04C209.333 23.9067 210.479 20.4133 211.813 15.56C212.613 12.7333 213.306 10.44 213.893 8.68C214.479 6.86667 215.146 5.21333 215.893 3.72C216.373 2.76 216.959 1.98667 217.653 1.4C218.399 0.813332 219.199 0.519998 220.053 0.519998C221.013 0.519998 221.999 0.866665 223.013 1.56C224.079 2.2 224.613 2.97333 224.613 3.88C224.613 4.14667 224.426 4.78667 224.053 5.8C221.973 10.44 220.133 14.92 218.533 19.24C216.933 23.5067 215.439 28.2 214.053 33.32C213.199 36.04 212.293 38.68 211.332 41.24C210.373 43.8533 209.706 45.48 209.333 46.12C208.213 47.6133 207.013 48.84 205.733 49.8C204.453 50.8133 202.906 51.32 201.093 51.32Z" fill="#0C243C"/>
</svg>
